<?xml version="1.0" encoding="utf-8"?>
<svg version="1.1" id="Layer_1" xmlns="http://www.w3.org/2000/svg" xmlns:xlink="http://www.w3.org/1999/xlink" x="0px" y="0px"
	 width="28.333px" height="59px" viewBox="0 0 28.333 59" enable-background="new 0 0 28.333 59" xml:space="preserve">
<path fill-rule="evenodd" clip-rule="evenodd" fill="#F7FBFB" d="M25.912,27.771c0-0.309,0.02-0.617,0.029-0.926
	c-0.013-0.312-0.026-0.624-0.039-0.936c0.059-0.113,0.038-0.211-0.057-0.295c-0.342-0.47-0.572-1.035-1.148-1.301
	c-1.37-0.631-2.721-1.308-4.146-1.813c-0.076-0.035-0.153-0.07-0.229-0.105c-0.06-0.063-0.117-0.126-0.177-0.188
	c-0.082-0.81-0.663-0.796-1.256-0.761c-0.209-0.243-0.131-0.535-0.132-0.81c-0.003-1.867,0.001-3.733-0.002-5.6
	c0-0.326,0.059-0.677-0.276-0.904c-0.077-0.058-0.154-0.115-0.232-0.173c-0.283-0.349-0.927,0.113-1.099-0.487
	c0.066-0.232,0.076-0.466,0.015-0.702c-0.006-0.205-0.01-0.41-0.015-0.615c-0.024-0.053-0.05-0.105-0.074-0.158L17.076,12
	c-0.047-0.065-0.093-0.13-0.14-0.196c-0.05-0.041-0.1-0.082-0.149-0.122c-0.063-0.037-0.126-0.075-0.189-0.112l-0.028-0.01
	c-0.088-0.076-0.182-0.077-0.281-0.028c-0.197-0.003-0.394-0.006-0.59-0.01c-0.066-0.02-0.133-0.04-0.199-0.061
	c0.082-1.319-0.123-2.646,0.112-3.96c0.762,0.007,1.479-0.226,2.16-0.51c1.656-0.692,3.314-1.23,5.151-0.826
	c0.622,0.137,0.71-0.503,0.903-0.875c0.219-0.421-0.245-0.509-0.486-0.625c-1.225-0.584-2.516-0.929-3.878-0.756
	c-2.466,0.313-4.913,0.842-7.423,0.518c-0.251-0.032-0.449,0.064-0.55,0.317c-0.207,0.528,0.354,2.557,0.804,2.898
	c0.005,0.218,0.011,0.436,0.016,0.653c-0.003,0.822-0.005,1.645-0.007,2.467c0.048,0.543-0.174,0.796-0.741,0.729
	c-0.193-0.022-0.409-0.003-0.548,0.187c-0.048,0.034-0.096,0.068-0.144,0.102c-0.056,0.067-0.111,0.135-0.166,0.203
	c-0.033,0.108-0.065,0.217-0.099,0.325c-0.001,0.309-0.003,0.617-0.004,0.926c-0.008,0.388-0.157,0.615-0.594,0.58
	c-0.194-0.015-0.41-0.017-0.551,0.175c-0.05,0.008-0.088,0.033-0.116,0.075c-0.04,0.034-0.08,0.068-0.119,0.102
	c-0.135,0.195-0.201,0.407-0.199,0.648c0.012,1.999,0.018,3.998,0.025,5.997l0,0c0.065,0.607-0.381,0.606-0.782,0.657
	c-0.435,0.046-0.639,0.303-0.662,0.725c-1.398,0.646-2.794,1.298-4.197,1.934c-0.988,0.448-1.5,1.213-1.569,2.281
	c-0.024,0.384-0.014,0.771-0.014,1.157c0,8.801,0,17.601-0.002,26.401c0,0.333-0.027,0.666-0.042,1
	c0.138,0.468,0.277,0.936,0.415,1.403c0.094,0.246,0.275,0.391,0.529,0.449c0.181,0.491,0.664,0.493,1.051,0.651
	c0.104,0.011,0.209,0.021,0.313,0.032c1.294,0.004,2.588,0.009,3.882,0.013l0.061,0.021l0.06-0.022
	c3.648-0.012,7.298-0.027,10.947-0.032c1.464-0.002,2.929,0.017,4.394,0.026c0.201,0.099,0.396,0.089,0.581-0.039
	c0.168-0.167,0.39-0.2,0.607-0.24c0.045-0.066,0.09-0.133,0.135-0.198c0.092-0.145,0.139-0.338,0.365-0.336l0.01-0.014
	c0.098-0.046,0.195-0.092,0.294-0.138l0.026-0.02c0.043-0.062,0.087-0.124,0.131-0.187c0.053-0.094,0.104-0.189,0.156-0.283
	c0.068-0.465,0.137-0.928,0.205-1.392c-0.01-0.386-0.029-0.772-0.029-1.158C25.91,44.928,25.91,36.349,25.912,27.771z"/>
<path fill-rule="evenodd" clip-rule="evenodd" fill="#49BCC2" d="M10.703,11.984c0.001-0.004,0.002-0.008,0.004-0.012
	c-0.143,0.08-0.125,0.208-0.103,0.337C10.638,12.201,10.67,12.092,10.703,11.984L10.703,11.984z"/>
<path fill-rule="evenodd" clip-rule="evenodd" fill="#3DB7BE" d="M24.743,29.197c-0.018-0.289-0.036-0.578-0.054-0.867
	c-0.095-0.02-0.188-0.04-0.28-0.06c-0.208,0.018-0.415,0.035-0.623,0.053c-0.102-0.019-0.202-0.037-0.303-0.055
	c-0.104,0.01-0.208,0.019-0.312,0.028c-0.111,0.024-0.223,0.049-0.333,0.073c-0.411,0.156-0.854,0.24-1.209,0.522
	c-0.202,0.11-0.42,0.199-0.603,0.335c-1.788,1.341-3.747,1.674-5.88,1.021c-0.002-0.036-0.009-0.072-0.02-0.106
	c-0.908-0.189-1.569-0.819-2.313-1.301c-0.053,0.006-0.105,0.013-0.159,0.019c-1.629-0.87-3.232-0.716-4.756,0.221
	c-0.813,0.499-1.609,1.011-2.508,1.34c-0.513,0.068-1.026,0.138-1.539,0.206c-0.208-0.01-0.417-0.021-0.625-0.031l0,0
	c0,0.499-0.063,0.73-0.063,1.065c0.01,0.36,0.029,0.72,0.029,1.08c0.001,7.102,0.001,14.204,0,21.306
	c0,0.672-0.035,1.349,0.514,1.866c0.57,0.196,1.16,0.194,1.752,0.194c5.471-0.001,10.943-0.001,16.414,0.001
	c0.333,0,0.666,0.022,1,0.035c0.713-0.006,1.387-0.101,1.778-0.813c0.023-0.054,0.048-0.109,0.07-0.163
	c0-5.396-0.004-10.79-0.001-16.185C24.722,35.722,24.736,32.459,24.743,29.197z"/>
<path fill-rule="evenodd" clip-rule="evenodd" fill="#E9F8FA" d="M6.899,4.922c-1.46,0.028-2.566,1.25-2.683,2.68
	c-0.12,1.461,1.402,2.71,2.512,2.688C8.104,10.261,9.265,9,9.256,7.508C9.248,6.176,8.084,4.899,6.899,4.922z"/>
<path fill-rule="evenodd" clip-rule="evenodd" fill="#E9F8FA" d="M24.179,16.621c-1.46,0.028-2.565,1.25-2.683,2.679
	c-0.12,1.462,1.402,2.71,2.512,2.688c1.376-0.027,2.537-1.288,2.527-2.78C26.527,17.874,25.363,16.598,24.179,16.621z"/>
</svg>
