<svg xmlns="http://www.w3.org/2000/svg" width="60" height="60"><path d="M57.376 29.826a4.32 4.32 0 0 0 .387-2.152c-.086-1.12-.587-2.118-1.408-2.806-.746-.624-1.68-.916-2.63-.82-1.452.146-2.722 1.193-3.234 2.67-.115.33-.412.562-.76.593l-2.474.22c-.107.01-.214 0-.317-.03l-1.905-.534c-.702-.197-1.262-.732-1.497-1.43a14.65 14.65 0 0 0-2.046-3.958c-.265-.365-.33-.834-.174-1.254l.762-2.048c.04-.108.1-.208.18-.293l2.342-2.534c.184-.2.448-.303.718-.282a2.22 2.22 0 0 0 1.86-.765 2.25 2.25 0 0 0-.07-3.003 2.24 2.24 0 0 0-1.638-.695c-.624.005-1.2.26-1.623.718-.465.503-.672 1.18-.567 1.86.04.268-.04.54-.225.738l-2.342 2.534c-.08.085-.173.154-.278.202l-2.006.93a1.34 1.34 0 0 1-1.255-.07c-2.28-1.377-4.898-2.105-7.568-2.105h0a1.34 1.34 0 0 1-1.141-.63l-1.282-2.044c-.057-.09-.097-.19-.118-.296l-.52-2.59a.89.89 0 0 1 .388-.92c1.22-.79 1.822-2.172 1.533-3.525-.403-1.89-2.384-3.11-4.415-2.727-1.022.194-1.887.755-2.436 1.58a3.25 3.25 0 0 0-.485 2.496c.276 1.294 1.3 2.318 2.672 2.67.33.085.58.35.648.684L25 12.954a.89.89 0 0 1 .006.319l-.437 2.66c-.05.303-.253.56-.538.677a14.68 14.68 0 0 0-4.412 2.826c-.204.19-.485.272-.76.223l-1.864-.332c-.137-.024-.267-.08-.38-.165l-1.85-1.396c-.202-.152-.33-.383-.35-.634a2.23 2.23 0 0 0-.985-1.673 2.26 2.26 0 0 0-2.935.4 2.22 2.22 0 0 0-.528 1.699c.067.62.378 1.168.876 1.544a2.24 2.24 0 0 0 2.03.343c.274-.088.575-.037.805.137l1.67 1.26c.11.084.202.193.263.32l.614 1.257a1.94 1.94 0 0 1 .02 1.67c-.886 1.927-1.335 3.984-1.335 6.116l.05 1.192a1.97 1.97 0 0 1-.812 1.757l-2.076 1.48c-.076.054-.16.096-.25.124l-2.843.894a.89.89 0 0 1-.266.041c-.224 0-.444-.085-.61-.244a3.48 3.48 0 0 0-3.495-.784l-.042.015-.042.015c-.432.156-.906-.045-1.1-.45-.617.38-1.12.903-1.476 1.51.41.188.617.66.467 1.094-.25.723-.256 1.484-.022 2.2.59 1.804 2.542 2.808 4.352 2.238 1.313-.413 2.26-1.564 2.414-2.933a.89.89 0 0 1 .615-.747l2.68-.843c.09-.028.18-.042.275-.04l2.446.023c.755.007 1.465.41 1.853 1.048.885 1.46 2.007 2.746 3.337 3.825a2.2 2.2 0 0 1 .784 2.007l-.345 2.45a.88.88 0 0 1-.079.262l-1.76 3.65c-.117.242-.337.418-.598.48-.716.167-1.287.653-1.566 1.334a2.26 2.26 0 0 0 .969 2.788 2.22 2.22 0 0 0 1.771.187c.596-.187 1.073-.6 1.344-1.162.3-.623.297-1.337-.01-1.96-.12-.245-.122-.53-.003-.777l1.748-3.627c.04-.083.092-.158.155-.225l1.562-1.648c.618-.653 1.52-.937 2.41-.76a14.73 14.73 0 0 0 2.855.279 2.61 2.61 0 0 1 2.242 1.23l1.18 1.9a.89.89 0 0 1 .107.252l.766 3.04c.077.306-.014.63-.24.85-.818.803-1.105 1.98-.75 3.072.47 1.445 2.004 2.318 3.49 1.987a2.97 2.97 0 0 0 2.254-3.653c-.262-1.038-1.066-1.862-2.1-2.15-.306-.086-.544-.33-.62-.638l-.762-3.022c-.022-.09-.03-.18-.025-.272l.154-2.454a2.28 2.28 0 0 1 1.19-1.86 14.77 14.77 0 0 0 3.238-2.34 2.28 2.28 0 0 1 1.853-.62l1.21.147c.14.017.27.066.387.144l1.925 1.29a.89.89 0 0 1 .384.614 2.23 2.23 0 0 0 1.077 1.616 2.26 2.26 0 0 0 2.909-.562 2.22 2.22 0 0 0 .433-1.726c-.102-.615-.443-1.146-.96-1.493a2.24 2.24 0 0 0-2.046-.23c-.27.103-.572.07-.81-.092l-1.738-1.166c-.116-.078-.212-.182-.28-.304l-.624-1.116c-.32-.572-.367-1.255-.13-1.873.4-1.036.68-2.12.833-3.22a2.21 2.21 0 0 1 1.226-1.693l1.753-.846c.096-.047.2-.075.307-.085l2.322-.205c.37-.033.724.17.882.508.687 1.47 2.122 2.32 3.657 2.167.258-.026.515-.08.764-.163.437-.144.907.07 1.09.484a4.84 4.84 0 0 0 1.581-1.447c-.395-.228-.556-.722-.36-1.142zm-27.77 12.8a12.44 12.44 0 0 1-12.423-12.423 12.44 12.44 0 0 1 12.423-12.423 12.48 12.48 0 0 1 2.851.329.89.89 0 0 1 .661 1.067c-.003.01-.006.022-.01.033.66.2 1.29.477 1.893.796l.017-.03a.89.89 0 0 1 1.224-.275 12.37 12.37 0 0 1 5.787 10.504 12.44 12.44 0 0 1-12.423 12.423z" fill="#eb5569"/><path d="M32.05 19.835a10.71 10.71 0 0 0-2.445-.282l-1.044.05a11.58 11.58 0 0 0-5.563 5.064c.708-.92 1.82-1.515 3.066-1.515 2.132 0 3.867 1.735 3.867 3.867s-1.735 3.867-3.867 3.867-3.867-1.735-3.867-3.867a3.87 3.87 0 0 1 .069-.725 11.51 11.51 0 0 0-.681 3.906c0 4.752 2.874 8.83 6.977 10.598.343.034.69.05 1.043.05 5.872 0 10.65-4.777 10.65-10.65 0-3.67-1.855-7.038-4.962-9.004-.404-.256-.53-.784-.292-1.195-.602-.32-1.234-.586-1.893-.796-.126.457-.59.738-1.057.628zM28.456 39.19a2.92 2.92 0 0 1-2.916-2.916 2.92 2.92 0 0 1 2.916-2.916 2.92 2.92 0 0 1 2.916 2.916 2.92 2.92 0 0 1-2.916 2.916zm6.37-11.58c1.428 0 2.6 1.162 2.6 2.6s-1.162 2.6-2.6 2.6-2.6-1.162-2.6-2.6 1.162-2.6 2.6-2.6z" fill="#f58a97"/><path d="M21.585 30.202a11.51 11.51 0 0 1 .681-3.906 3.85 3.85 0 0 1 .732-1.627 11.58 11.58 0 0 1 5.563-5.064c-5.384.526-9.605 5.078-9.605 10.598s4.22 10.072 9.606 10.598c-4.103-1.768-6.977-5.846-6.977-10.598z" fill="#f07281"/><path d="M10.194 8.34a2.4 2.4 0 0 0 2.398-2.398 2.4 2.4 0 0 0-2.398-2.398 2.4 2.4 0 0 0-2.398 2.398 2.4 2.4 0 0 0 2.398 2.398zm-.898 39.626c-.707 0-1.283.575-1.283 1.283s.575 1.283 1.283 1.283 1.283-.575 1.283-1.283-.575-1.283-1.283-1.283zm39.842 2.538a2.31 2.31 0 0 0-2.309 2.309 2.31 2.31 0 0 0 2.309 2.309 2.31 2.31 0 0 0 2.309-2.309 2.31 2.31 0 0 0-2.309-2.309zm-23.074-21.39c1.154 0 2.093-.94 2.093-2.093a2.1 2.1 0 0 0-2.093-2.093 2.1 2.1 0 0 0-2.093 2.093 2.1 2.1 0 0 0 2.093 2.093zm2.392 6.022a1.14 1.14 0 0 0-1.14 1.14c0 .628.512 1.14 1.14 1.14s1.14-.512 1.14-1.14-.512-1.14-1.14-1.14zm6.37-4.117c.45 0 .816-.366.816-.816s-.366-.816-.816-.816-.816.366-.816.816.366.816.816.816z" fill="#eb5569"/><path d="M59.532 27.537c-.123-1.602-.847-3.033-2.04-4.03-1.115-.933-2.516-1.37-3.946-1.225-1.95.196-3.667 1.47-4.514 3.307l-1.772.156-1.75-.5a.44.44 0 0 1-.293-.288 16.42 16.42 0 0 0-2.158-4.248l.62-1.664 1.954-2.113a3.97 3.97 0 0 0 2.885-1.381 4.04 4.04 0 0 0-.127-5.391 3.97 3.97 0 0 0-2.935-1.244 4.03 4.03 0 0 0-2.912 1.287c-.733.793-1.108 1.826-1.06 2.9l-1.954 2.113-1.637.76a16.41 16.41 0 0 0-8.05-2.24l-1.07-1.707-.377-1.876c1.504-1.23 2.207-3.14 1.805-5.02-.603-2.824-3.5-4.663-6.48-4.1-1.496.283-2.768 1.115-3.583 2.34a5.01 5.01 0 0 0-.742 3.848c.38 1.777 1.668 3.2 3.42 3.85l.417 2.072-.332 2.02a16.44 16.44 0 0 0-4.153 2.67l-1.227-.22-1.387-1.046a3.99 3.99 0 0 0-1.71-2.586c-1.685-1.13-3.952-.822-5.272.72a3.98 3.98 0 0 0-.945 3.045 4.04 4.04 0 0 0 1.57 2.77 4.01 4.01 0 0 0 3.174.735l1.162.876.52 1.066c.023.047.024.102.002.15a16.3 16.3 0 0 0-1.498 6.857l.054 1.336c.006.07-.022.13-.073.168l-1.962 1.398-2.24.705a5.25 5.25 0 0 0-4.867-.832l-.1.035H3.92a.89.89 0 0 0-.534 1.135.9.9 0 0 0 .035.084c.194.405.668.606 1.1.45l.083-.03a3.48 3.48 0 0 1 3.495.784.88.88 0 0 0 .61.244.89.89 0 0 0 .266-.04l2.843-.894a.9.9 0 0 0 .25-.124l2.076-1.48a1.97 1.97 0 0 0 .812-1.757l-.05-1.192c0-2.13.45-4.2 1.335-6.116a1.94 1.94 0 0 0-.02-1.67l-.614-1.257c-.06-.125-.15-.235-.263-.32l-1.67-1.26a.89.89 0 0 0-.805-.137 2.24 2.24 0 0 1-2.03-.343 2.21 2.21 0 0 1-.876-1.544 2.22 2.22 0 0 1 .528-1.699 2.26 2.26 0 0 1 2.935-.4 2.23 2.23 0 0 1 .985 1.673.88.88 0 0 0 .35.634l1.85 1.396a.88.88 0 0 0 .38.165l1.864.332c.274.05.555-.034.76-.223a14.68 14.68 0 0 1 4.412-2.826c.285-.117.488-.373.538-.677l.437-2.66a.89.89 0 0 0-.006-.319l-.553-2.746a.89.89 0 0 0-.648-.684c-1.372-.353-2.396-1.377-2.672-2.67a3.25 3.25 0 0 1 .485-2.496c.548-.825 1.413-1.386 2.436-1.58 2.032-.385 4.012.838 4.415 2.727.3 1.352-.313 2.736-1.533 3.525-.306.198-.46.563-.388.92l.52 2.6a.89.89 0 0 0 .118.296l1.282 2.044c.247.395.673.63 1.14.63h0a14.64 14.64 0 0 1 7.568 2.105 1.34 1.34 0 0 0 1.255.07l2.006-.93a.89.89 0 0 0 .278-.202l2.342-2.534c.184-.2.267-.47.225-.738-.105-.68.1-1.358.567-1.86.423-.458 1-.713 1.623-.718a2.24 2.24 0 0 1 1.638.695 2.25 2.25 0 0 1 .07 3.003 2.22 2.22 0 0 1-1.86.765.89.89 0 0 0-.718.282l-2.342 2.534c-.08.085-.14.185-.18.293l-.762 2.048c-.156.42-.1.9.174 1.254.883 1.213 1.57 2.544 2.046 3.958.235.7.794 1.235 1.497 1.43l1.905.534a.85.85 0 0 0 .317.03l2.474-.22c.348-.03.646-.263.76-.593.512-1.476 1.782-2.523 3.234-2.67.95-.095 1.884.196 2.63.82.822.688 1.322 1.685 1.408 2.806a4.33 4.33 0 0 1-.387 2.152c-.196.42-.034.915.36 1.142l.07.037a.89.89 0 0 0 1.18-.43c.44-.943.628-1.993.548-3.037zm-4.465 4.393a3.6 3.6 0 0 1-.764.163c-1.535.154-2.97-.697-3.657-2.167a.89.89 0 0 0-.882-.508l-2.322.205a.89.89 0 0 0-.307.085l-1.753.846a2.21 2.21 0 0 0-1.226 1.693 14.59 14.59 0 0 1-.833 3.219c-.238.618-.2 1.3.13 1.873l.624 1.116c.068.122.164.226.28.304l1.738 1.166c.24.16.542.195.8.092a2.24 2.24 0 0 1 2.046.23 2.21 2.21 0 0 1 .96 1.493 2.22 2.22 0 0 1-.433 1.726 2.26 2.26 0 0 1-2.909.562 2.23 2.23 0 0 1-1.077-1.616.89.89 0 0 0-.384-.614l-1.925-1.3c-.116-.078-.25-.127-.387-.144l-1.2-.147a2.28 2.28 0 0 0-1.853.62c-.97.924-2.06 1.712-3.238 2.34a2.28 2.28 0 0 0-1.19 1.86L35.15 47.5a.88.88 0 0 0 .025.272l.762 3.022c.078.3.315.552.62.638 1.033.3 1.838 1.113 2.1 2.15a2.97 2.97 0 0 1-2.254 3.653c-1.486.33-3.02-.542-3.5-1.987-.356-1.092-.068-2.27.75-3.072a.89.89 0 0 0 .24-.85l-.766-3.04a.85.85 0 0 0-.107-.252l-1.18-1.9a2.61 2.61 0 0 0-2.24-1.23 14.68 14.68 0 0 1-2.857-.28c-.9-.176-1.793.108-2.4.76l-1.562 1.648a.87.87 0 0 0-.155.225l-1.748 3.627a.89.89 0 0 0 .003.777 2.26 2.26 0 0 1 .01 1.96 2.21 2.21 0 0 1-1.344 1.162 2.22 2.22 0 0 1-1.771-.187c-.962-.54-1.388-1.766-.97-2.788a2.22 2.22 0 0 1 1.566-1.334.88.88 0 0 0 .598-.48l1.76-3.65c.04-.083.067-.17.08-.262l.345-2.45a2.2 2.2 0 0 0-.784-2.007 14.76 14.76 0 0 1-3.337-3.825c-.387-.64-1.097-1.04-1.853-1.048l-2.446-.023c-.093-.001-.186.013-.275.04l-2.678.843a.89.89 0 0 0-.615.747c-.154 1.37-1.102 2.52-2.414 2.933-1.8.57-3.763-.434-4.352-2.238a3.43 3.43 0 0 1 .022-2.2c.15-.435-.058-.906-.467-1.094l-.083-.033c-.464-.16-.968.087-1.128.55-.375 1.1-.386 2.242-.03 3.33.72 2.207 2.792 3.62 5.007 3.62a5.23 5.23 0 0 0 1.564-.24c1.792-.564 3.133-2.04 3.546-3.843l2.028-.638 2.306.022c.146.002.28.076.352.194 1 1.635 2.248 3.076 3.737 4.283.1.1.165.235.145.38l-.325 2.314-1.53 3.172a4.03 4.03 0 0 0-2.378 2.264 4.01 4.01 0 0 0 1.741 5.007c.98.55 2.106.67 3.173.334 1.053-.33 1.93-1.1 2.4-2.084a3.98 3.98 0 0 0 .161-3.097l1.514-3.142 1.467-1.548a.84.84 0 0 1 .778-.241c1.048.207 2.125.313 3.2.313h.001c.3 0 .57.147.724.392l1.108 1.783.616 2.445c-1.026 1.252-1.35 2.93-.84 4.5.644 1.976 2.53 3.28 4.55 3.28a4.74 4.74 0 0 0 1.014-.11 4.73 4.73 0 0 0 3.589-5.818 4.78 4.78 0 0 0-2.838-3.255l-.6-2.422.145-2.316a.49.49 0 0 1 .254-.405c1.32-.704 2.54-1.586 3.627-2.62a.51.51 0 0 1 .414-.143l1 .122 1.442.968a3.99 3.99 0 0 0 1.85 2.487c1.746 1.036 4 .6 5.224-1a3.98 3.98 0 0 0 .775-3.092c-.18-1.088-.807-2.064-1.723-2.678a4 4 0 0 0-3.2-.558l-1.2-.8-.52-.93c-.062-.1-.07-.246-.022-.37a16.37 16.37 0 0 0 .934-3.61.44.44 0 0 1 .239-.34l1.607-.775 1.578-.14c1.097 1.815 3.053 2.83 5.144 2.62.386-.04.77-.12 1.14-.243.465-.153.72-.655.565-1.12l-.03-.08c-.182-.413-.65-.63-1.1-.485zM36.24 19.698c-.414-.262-.962-.14-1.224.275l-.017.03a.89.89 0 0 0 .292 1.195c3.107 1.967 4.962 5.333 4.962 9.004 0 5.872-4.777 10.65-10.65 10.65-.352 0-.7-.018-1.043-.05-5.384-.526-9.606-5.078-9.606-10.598s4.22-10.07 9.605-10.598a10.73 10.73 0 0 1 1.044-.051c.825 0 1.647.095 2.445.282.466.1.93-.17 1.057-.628l.01-.033a.89.89 0 0 0-.661-1.067 12.48 12.48 0 0 0-2.851-.329A12.44 12.44 0 0 0 17.18 30.203a12.44 12.44 0 0 0 12.423 12.423 12.44 12.44 0 0 0 12.423-12.423 12.37 12.37 0 0 0-5.787-10.504zm-26.046-9.582a4.18 4.18 0 0 0 4.172-4.173 4.18 4.18 0 0 0-4.172-4.173 4.18 4.18 0 0 0-4.173 4.173 4.18 4.18 0 0 0 4.173 4.172zm0-6.57a2.4 2.4 0 0 1 2.398 2.398 2.4 2.4 0 0 1-2.398 2.398 2.4 2.4 0 0 1-2.398-2.398 2.4 2.4 0 0 1 2.398-2.398zM9.296 46.2a3.06 3.06 0 0 0-3.057 3.057 3.06 3.06 0 0 0 3.057 3.057 3.06 3.06 0 0 0 3.057-3.057 3.06 3.06 0 0 0-3.057-3.057zm0 4.34c-.707 0-1.283-.575-1.283-1.283s.575-1.283 1.283-1.283 1.283.575 1.283 1.283-.575 1.283-1.283 1.283zm39.842-1.8a4.09 4.09 0 0 0-4.083 4.084 4.09 4.09 0 0 0 4.083 4.084 4.09 4.09 0 0 0 4.084-4.084 4.09 4.09 0 0 0-4.084-4.084zm0 6.392a2.31 2.31 0 0 1-2.309-2.309 2.31 2.31 0 0 1 2.309-2.309 2.31 2.31 0 0 1 2.309 2.309 2.31 2.31 0 0 1-2.309 2.309zM22.197 27.02c0 2.132 1.735 3.867 3.867 3.867s3.867-1.735 3.867-3.867-1.735-3.867-3.867-3.867a3.86 3.86 0 0 0-3.066 1.515 3.85 3.85 0 0 0-.802 2.352zm3.867-2.093c1.154 0 2.093.94 2.093 2.093a2.1 2.1 0 0 1-2.093 2.093 2.1 2.1 0 0 1-2.093-2.093 2.1 2.1 0 0 1 2.093-2.093zm2.392 8.433a2.92 2.92 0 0 0-2.916 2.916 2.92 2.92 0 0 0 2.916 2.916 2.92 2.92 0 0 0 2.916-2.916 2.92 2.92 0 0 0-2.916-2.916zm0 4.057a1.14 1.14 0 0 1-1.14-1.14c0-.628.512-1.14 1.14-1.14s1.14.512 1.14 1.14-.512 1.14-1.14 1.14zm6.37-4.625c1.428 0 2.6-1.162 2.6-2.6a2.6 2.6 0 0 0-5.2 0 2.6 2.6 0 0 0 2.6 2.6zm0-3.406c.45 0 .816.366.816.816s-.366.816-.816.816-.816-.366-.816-.816.366-.816.816-.816z"/></svg>