<svg width="18" height="18" xmlns="http://www.w3.org/2000/svg">
	<g>
   <path stroke="null" class="virus-body" d="m9.14946,6.49501c-0.36755,0.00146 -0.66241,0.2972 -0.66006,0.6619c0.00251,0.36588 0.29787,0.65479 0.66797,0.6532c0.3655,-0.00155 0.66605,-0.30122 0.66333,-0.6614c-0.0028,-0.36161 -0.30414,-0.65512 -0.67124,-0.6537z" fill="#F98C32"/>
   <path stroke="null" class="virus-body" d="m10.48109,8.72443c-0.13046,0.00385 -0.20169,0.08559 -0.19909,0.21722c0.00268,0.1333 0.07944,0.1996 0.21395,0.20738c0.12727,-0.00833 0.20788,-0.07667 0.20822,-0.20738c0.00029,-0.13958 -0.08362,-0.22132 -0.22308,-0.21722z" fill="#F98C32"/>
   <path stroke="null" class="virus-body" d="m8.70724,9.61439c-0.1269,-0.00155 -0.21169,0.07881 -0.21391,0.20893c-0.00243,0.14029 0.08362,0.22676 0.22107,0.22257c0.12594,-0.00377 0.20161,-0.08458 0.20257,-0.22659c-0.00498,-0.12778 -0.08408,-0.20345 -0.20972,-0.20491z" fill="#F98C32"/>
   <path stroke="null" class="virus-body" d="m8.91697,3.55929c-2.93171,0 -5.30833,2.37662 -5.30833,5.30833c0,2.93167 2.37662,5.30833 5.30833,5.30833s5.30828,-2.37662 5.30828,-5.30833c0,-2.93171 -2.37662,-5.30833 -5.30828,-5.30833zm-0.19449,6.67482c-0.2574,0.00787 -0.41849,-0.15406 -0.41397,-0.41677c0.00423,-0.24363 0.16293,-0.39413 0.40057,-0.39124c0.2353,0.00276 0.38346,0.14448 0.39271,0.38375c-0.00176,0.26585 -0.14351,0.41719 -0.37931,0.42426zm0.43586,-2.16241c-0.5173,0.00222 -0.93022,-0.40162 -0.9337,-0.91302c-0.00331,-0.50977 0.40886,-0.92315 0.9226,-0.9252c0.51307,-0.00201 0.93432,0.40827 0.93826,0.91377c0.00385,0.50341 -0.41627,0.92231 -0.92717,0.92445zm1.34009,1.25626c-0.24781,-0.01436 -0.38927,-0.13648 -0.39421,-0.38212c-0.00481,-0.24254 0.12644,-0.39317 0.36684,-0.40024c0.25693,-0.00758 0.41162,0.14305 0.41104,0.40024c-0.00067,0.24086 -0.14916,0.36676 -0.38367,0.38212z" fill="#F98C32"/>
   <path stroke="null" class="virus-membro" d="m10.25228,1.10566c-0.00063,-0.6113 -0.48742,-1.10107 -1.09922,-1.10563c-0.61645,-0.00465 -1.1212,0.49558 -1.12007,1.11002c0.00084,0.45004 0.28209,0.84547 0.67316,1.01849l-0.00532,1.57718c0,0 0.32118,-0.06977 0.88301,0l0,-1.57664c0.39367,-0.17231 0.66889,-0.56681 0.66843,-1.02343z" fill="#7F0101"/>
   <path stroke="null" class="virus-membro" d="m16.79267,7.64869c-0.45879,-0.00218 -0.85372,0.27757 -1.02368,0.67693l-1.59271,-0.00536c0,0 0.06977,0.32118 0,0.88301l1.59393,0c0.16875,0.39178 0.55669,0.66534 1.01179,0.66789c0.61461,0.00343 1.12049,-0.50136 1.11751,-1.11471c-0.00297,-0.60335 -0.50412,-1.10492 -1.10684,-1.10776z" fill="#7F0101"/>
   <path stroke="null" class="virus-membro" d="m9.57845,15.6654l0.0054,-1.59732c0,0 -0.32122,0.06977 -0.88305,0l0,1.60238c-0.39271,0.17578 -0.67161,0.57539 -0.66768,1.02849c0.00527,0.60595 0.50345,1.09772 1.11157,1.09717c0.6208,-0.00054 1.11157,-0.49583 1.10759,-1.11781c-0.00293,-0.45235 -0.28117,-0.84329 -0.67383,-1.01292z" fill="#7F0101"/>
   <path stroke="null" class="virus-membro" d="m3.69841,8.49663l-1.5907,0c-0.17783,-0.36592 -0.55024,-0.61641 -0.98601,-0.61863c-0.61909,-0.00314 -1.12199,0.49391 -1.1217,1.10868c0.00029,0.60214 0.50027,1.1055 1.10312,1.11057c0.47859,0.00402 0.8882,-0.2977 1.04636,-0.72284l1.54885,0.00523c0.00008,0 -0.06969,-0.32118 0.00008,-0.88301z" fill="#7F0101"/>
   <path stroke="null" class="virus-membro" d="m4.06885,3.19734c0.08153,-0.17331 0.12681,-0.36659 0.12547,-0.57016c-0.0049,-0.73443 -0.60297,-1.32958 -1.33544,-1.32883c-0.7354,0.00071 -1.32916,0.59381 -1.33105,1.32967c-0.00188,0.73749 0.58703,1.33427 1.32138,1.33896c0.21789,0.00138 0.42389,-0.05006 0.60645,-0.14163l2.52172,2.52934c0,0 0.11656,-0.33767 0.6244,-0.6244l-2.53294,-2.53294z" fill="#7F0101"/>
   <path stroke="null" class="virus-membro" d="m15.45555,2.26823c-0.52563,-0.00318 -0.95948,0.42998 -0.95585,0.95436c0.00104,0.14944 0.03729,0.29084 0.10054,0.41664l-1.8769,1.66633c0,0 0.23497,0.09664 0.41762,0.46896l1.90743,-1.69862c0.12268,0.05777 0.25935,0.09015 0.40316,0.08997c0.52146,-0.00065 0.94522,-0.42477 0.94582,-0.94668c0.00057,-0.52295 -0.42015,-0.94781 -0.94183,-0.95096z" fill="#7F0101"/>
   <path stroke="null" class="virus-membro" d="m15.95156,14.00932c-0.22379,-0.00121 -0.43607,0.05499 -0.62323,0.15398l-2.52892,-2.53666c0,0 -0.11656,0.33767 -0.62445,0.6244l2.55106,2.5511c-0.0768,0.16925 -0.1192,0.35621 -0.11706,0.55179c0.00808,0.7341 0.60544,1.32356 1.34042,1.3223c0.73569,-0.00121 1.32828,-0.59477 1.3282,-1.33046c0,-0.73456 -0.59339,-1.3326 -1.32602,-1.33645z" fill="#7F0101"/>
   <path stroke="null" class="virus-membro" d="m6.88677,12.37191c0,0 -0.33767,-0.11656 -0.6244,-0.62445l-2.53675,2.53679c-0.18202,-0.093 -0.3871,-0.14565 -0.60306,-0.14477c-0.73418,0.00293 -1.32707,0.59879 -1.32762,1.3341c-0.00054,0.73766 0.58879,1.33071 1.32481,1.33322c0.73615,0.00255 1.33406,-0.58535 1.34239,-1.31975c0.0023,-0.20366 -0.04315,-0.39806 -0.12552,-0.57276l2.55014,-2.5424z" fill="#7F0101"/>
  </g>
</svg>
