<svg xmlns="http://www.w3.org/2000/svg" width="60" height="60"><path d="M41.27 22.273l.375.002c.803.073 1.43-.103 2.077-.724 1.566-1.5 4.113-1.27 5.566.356s1.336 4.113-.26 5.6-4.096 1.44-5.59-.15a1.4 1.4 0 0 0-1.198-.495l-2.357.003c-.264-.005-.378.076-.42.343a14.45 14.45 0 0 1-2.002 5.379c-.108.175-.08.277.058.4l3.945 3.86c.182.18.35.1.54.068 2.934-.494 5.5 1.698 5.436 4.642-.055 2.58-2.284 4.596-4.908 4.438-2.55-.154-4.52-2.487-4.206-5.034.064-.515-.047-.85-.413-1.21l-3.225-3.29c-.203-.21-.332-.292-.606-.07-1.762 1.425-3.752 2.394-5.97 2.876-.307.067-.39.203-.382.507l.001 2.41c-.01.35.092.58.364.82 1.312 1.154 1.7 2.945 1.045 4.537-.677 1.622-2.262 2.572-4.074 2.442-1.622-.117-3.068-1.314-3.49-2.952-.413-1.6.04-2.964 1.257-4.064a.8.8 0 0 0 .309-.679V39.99c.007-.316-.055-.468-.417-.517-2.266-.3-4.34-1.136-6.214-2.444-.276-.193-.424-.175-.652.065l-2.8 2.872c-.228.227-.278.434-.235.75.336 2.498-1.203 4.722-3.567 5.195-2.403.48-4.692-.9-5.356-3.253-.924-3.264 1.893-6.326 5.28-5.72.292.052.456-.013.65-.204l2.837-2.77c.25-.237.3-.388.082-.696a13.94 13.94 0 0 1-2.322-5.362c-.08-.394-.23-.5-.594-.462-.265.028-.536.018-.803.003-.964-.055-1.757.07-2.576.822-1.608 1.477-4.14 1.106-5.532-.592-1.37-1.67-1.165-4.12.463-5.545 1.645-1.44 4.127-1.316 5.586.313.283.316.553.43.956.413l1.982-.003c.238.004.338-.06.38-.315a14.48 14.48 0 0 1 2.523-6.187c.134-.188.108-.295-.048-.446l-3.06-3c-.248-.25-.5-.122-.748-.085-2.664.393-5.14-1.665-5.22-4.347C3.64 5.787 5.835 3.578 8.462 3.7c2.77.13 4.746 2.528 4.342 5.316-.054.374.042.6.286.834l2.772 2.835c.202.21.332.22.572.05 1.916-1.346 4.04-2.183 6.36-2.505.285-.04.356-.147.343-.405l-.001-.964c.047-.895-.072-1.623-.783-2.376-1.478-1.567-1.174-4.095.463-5.51a4.01 4.01 0 0 1 5.56.301c1.487 1.6 1.442 4.088-.158 5.59a1.38 1.38 0 0 0-.491 1.198l.002 1.875c-.01.298.068.433.387.504a14.28 14.28 0 0 1 5.969 2.88c.236.19.365.235.602-.014l3.482-3.564c.234-.233.21-.447.173-.718-.36-2.68 1.325-4.917 3.966-5.28 2.464-.34 4.705 1.405 5.094 3.968.353 2.32-1.348 4.663-3.684 5.072-.46.08-.93.162-1.383.042-.5-.13-.816.01-1.168.37l-3.524 3.446c-.237.226-.256.38-.082.665.844 1.38 1.438 2.868 1.754 4.458.073.368.194.56.618.518.442-.045.892-.01 1.34-.01zM25.01 38.48c2.73-.028 5.377-.852 7.75-2.537.822-.584.846-.614.1-1.308-.4-.378-.09-.523.12-.74.222-.228.372-.482.743-.09l4.443 4.572c.63.645.63.643 1.238.015.2-.205.39-.423.616-.594.332-.252.33-.424.017-.724l-4.834-4.71c-.11-.107-.35-.237-.274-.35.183-.278.418-.55.694-.728.187-.12.327.17.43.304.348.446.503.263.717-.13 1.498-2.746 1.995-5.666 1.533-8.75-.246-1.638-.807-3.175-1.628-4.617-.135-.237-.245-.338-.446-.072-.064.084-.167.14-.225.228-.292.433-.503.174-.725-.073-.212-.236-.52-.38-.1-.775l4.92-4.776c.226-.218.284-.344.01-.573-.354-.297-.687-.628-.987-.98-.24-.284-.38-.29-.648-.01l-4.702 4.842c-.312.326-.464.304-.786.006-.385-.356-.416-.598.007-.9.086-.06.143-.163.228-.226.36-.266.29-.454-.048-.707-3.335-2.495-7.05-3.335-11.126-2.54-1.697.33-3.26 1.018-4.708 1.972-.29.192-.432.315-.094.606.35.302.63.686.986.982s.262.492-.035.74c-.262.218-.397.55-.82.097-1.55-1.655-3.16-3.252-4.735-4.885-.238-.247-.378-.275-.61-.002a6.56 6.56 0 0 1-.909.906c-.362.286-.322.46-.001.766l4.804 4.665c.26.25.407.438.03.7a.97.97 0 0 0-.225.228c-.177.236-.33.25-.54.017-.31-.344-.683-.634-.98-.988-.322-.384-.5-.335-.752.077-1.776 2.786-2.496 5.816-2.116 9.093.25 2.143.996 4.116 2.197 5.915.166.25.284.44.578.108.342-.387.733-.73 1.106-1.1.074-.07.22-.192.237-.177.254.22.53.434.723.704.14.194-.138.29-.25.398l-4.907 4.79c-.24.232-.255.357.004.575.327.274.65.57.908.906.31.402.495.317.807-.01l4.665-4.804c.26-.27.438-.302.664.002a1.08 1.08 0 0 0 .229.224c.25.183.234.337.007.545-.354.326-.66.706-1.02 1.024-.298.263-.272.394.058.61 2.277 1.478 4.768 2.227 7.652 2.26zM4.888 8.275c-.005 1.89 1.503 3.417 3.384 3.43 1.9.012 3.457-1.537 3.445-3.43-.013-1.88-1.544-3.405-3.42-3.403a3.41 3.41 0 0 0-3.409 3.405zM42.864 44.84a3.4 3.4 0 0 0 3.401-3.407c0-1.88-1.52-3.412-3.396-3.422-1.886-.01-3.46 1.565-3.438 3.443s1.55 3.39 3.433 3.386zm-.005-33.135c1.878-.002 3.404-1.53 3.406-3.41s-1.513-3.413-3.39-3.424c-1.893-.01-3.455 1.548-3.442 3.437.013 1.872 1.554 3.4 3.428 3.397zM8.28 44.84a3.42 3.42 0 0 0 3.438-3.38c.02-1.882-1.545-3.46-3.43-3.45-1.88.008-3.398 1.533-3.4 3.416-.001 1.89 1.508 3.408 3.393 3.414zm35.18-20.255a2.83 2.83 0 0 0 2.822 2.828c1.574.01 2.87-1.284 2.862-2.855-.008-1.545-1.29-2.83-2.834-2.837-1.573-.008-2.854 1.28-2.85 2.863zM28.274 4c-.002-1.565-1.248-2.82-2.815-2.83a2.85 2.85 0 0 0-2.868 2.843c.003 1.562 1.325 2.87 2.88 2.846S28.276 5.56 28.274 4zM4.036 22.308c-1.585-.008-2.873 1.265-2.872 2.84.001 1.542 1.28 2.83 2.825 2.844 1.576.013 2.86-1.267 2.858-2.85-.001-1.57-1.247-2.825-2.81-2.833zm24.24 23.663c-.01-1.552-1.285-2.822-2.836-2.825a2.88 2.88 0 0 0-2.847 2.877c.014 1.552 1.29 2.81 2.846 2.8a2.82 2.82 0 0 0 2.836-2.862zm12.73-22.536c-.356 0-.712.01-1.066-.004-.25-.01-.347.063-.333.332.028.532.033 1.066.023 1.6-.005.242.046.356.316.35.73-.014 1.458-.012 2.186-.001.258.004.296-.1.244-.324-.128-.545-.13-1.094.002-1.638.056-.233-.002-.327-.252-.318-.373.013-.747.004-1.12.003zM26.56 42.137V40.9c-.007-.425.133-.983-.08-1.238-.233-.277-.798-.018-1.22-.023-.214-.002-.43.017-.642.003-.23-.015-.318.067-.314.303a68.81 68.81 0 0 1 .001 1.928c-.002.22.063.26.283.213.636-.137 1.276-.11 1.975.052zM26.56 7.872c-.7.162-1.337.19-1.972.05-.214-.046-.29-.016-.285.21.008.552.01 1.104-.001 1.655-.005.23.076.307.3.306.55-.002 1.104.01 1.653.05.255.02.3-.077.298-.294l-.003-1.977zm-16.477 17.21c-.07-.3.198-.795-.07-.994-.245-.18-.716-.058-1.088-.067-.09-.002-.178 0-.267 0-.717 0-.715 0-.658.728.015.195-.01.393.017.585.042.312-.27.72-.03.886.23.16.65.056.986.056 1.155.003 1.155.001 1.11-1.195z" fill-rule="evenodd" fill="#38367d"/></svg>